<svg width="20" height="20" viewBox="0 0 20 20" fill="none" xmlns="http://www.w3.org/2000/svg">
<path d="M15.0026 10.0001C14.9986 9.56172 14.8219 9.14255 14.5109 8.83347L10.9359 5.25014C10.7798 5.09493 10.5686 5.00781 10.3484 5.00781C10.1283 5.00781 9.91707 5.09493 9.76094 5.25014C9.68283 5.32761 9.62084 5.41978 9.57853 5.52133C9.53622 5.62288 9.51444 5.7318 9.51444 5.84181C9.51444 5.95182 9.53622 6.06074 9.57853 6.16229C9.62084 6.26384 9.68283 6.356 9.76094 6.43347L12.5026 9.16681H4.16927C3.94826 9.16681 3.7363 9.2546 3.58002 9.41088C3.42374 9.56716 3.33594 9.77913 3.33594 10.0001C3.33594 10.2212 3.42374 10.4331 3.58002 10.5894C3.7363 10.7457 3.94826 10.8335 4.16927 10.8335H12.5026L9.76094 13.5751C9.60402 13.731 9.51542 13.9427 9.51464 14.1639C9.51386 14.385 9.60096 14.5974 9.75677 14.7543C9.91259 14.9112 10.1244 14.9998 10.3455 15.0006C10.5666 15.0014 10.779 14.9143 10.9359 14.7585L14.5109 11.1751C14.8239 10.864 15.0007 10.4415 15.0026 10.0001Z" fill="#0F203C"/>
</svg>
