<svg width="25" height="25" viewBox="0 0 25 25" fill="none" xmlns="http://www.w3.org/2000/svg">
<g clip-path="url(#clip0_5110_681)">
<path d="M23.9226 22.7938L17.9271 16.8248C19.561 14.8354 20.3643 12.2969 20.1709 9.73432C19.9775 7.17179 18.8022 4.78129 16.8881 3.05728C14.974 1.33327 12.4675 0.407651 9.88718 0.471883C7.30681 0.536114 4.84995 1.58528 3.02479 3.40237C1.19962 5.21946 0.145789 7.66545 0.0812715 10.2344C0.0167542 12.8034 0.946486 15.2987 2.67816 17.2043C4.40983 19.11 6.81096 20.2801 9.38488 20.4726C11.9588 20.6651 14.5086 19.8654 16.5068 18.2388L22.5024 24.2078C22.6918 24.3899 22.9455 24.4907 23.2089 24.4884C23.4722 24.4862 23.7242 24.381 23.9104 24.1956C24.0966 24.0102 24.2023 23.7594 24.2046 23.4972C24.2069 23.235 24.1056 22.9824 23.9226 22.7938ZM10.1547 18.5008C8.56544 18.5008 7.01185 18.0316 5.6904 17.1525C4.36896 16.2735 3.33903 15.024 2.73083 13.5622C2.12264 12.1004 1.96351 10.4919 2.27357 8.94004C2.58362 7.38819 3.34893 5.96272 4.47272 4.8439C5.59652 3.72508 7.02832 2.96316 8.58706 2.65448C10.1458 2.34579 11.7615 2.50422 13.2298 3.10972C14.6981 3.71522 15.9531 4.7406 16.836 6.0562C17.719 7.37179 18.1903 8.91851 18.1903 10.5008C18.1879 12.6218 17.3405 14.6552 15.8341 16.155C14.3276 17.6548 12.2851 18.4984 10.1547 18.5008Z" fill="#7F7F7F"/>
</g>
<defs>
<clipPath id="clip0_5110_681">
<rect width="24.1067" height="24" fill="white" transform="translate(0.109375 0.5)"/>
</clipPath>
</defs>
</svg>
