<svg width="61" height="62" viewBox="0 0 61 62" fill="none" xmlns="http://www.w3.org/2000/svg">
<rect y="0.59375" width="60.7023" height="60.7023" rx="12" fill="#1699F8"/>
<path d="M49.8053 52.9328L48.4732 44.8646C48.2101 43.2715 47.4105 41.7926 46.2214 40.7001C45.607 40.1353 44.6765 41.092 45.3191 41.6822C46.2898 42.5741 46.9426 43.7814 47.1574 45.0818L47.8483 49.2667C47.3182 48.2868 46.8741 47.2744 46.3655 46.2827C45.8104 45.1836 44.7702 44.1279 43.5115 43.3862C42.9002 43.0261 41.3625 42.241 40.2856 42.7225C39.8026 42.9385 39.5681 43.4608 39.4542 43.9489C37.6888 42.7163 35.6757 41.8793 33.5643 41.4913L38.6179 38.464L42.1683 39.9722C42.924 40.2931 43.5007 39.0892 42.6898 38.7445L38.9752 37.1665L37.3825 34.9619C39.5358 33.957 40.9515 31.7598 40.9515 29.3493V20.1123V17.615L41.8779 15.5286C42.7719 13.5152 41.6549 11.0841 39.5427 10.4649L32.626 8.43652C31.4676 8.09677 30.2428 8.09677 29.0865 8.43599L25.9631 9.34144C25.1616 9.57378 25.4965 10.8658 26.3344 10.6224L29.4598 9.7165C30.3727 9.44868 31.3375 9.44868 32.2506 9.7165L39.1674 11.745C40.5243 12.1428 41.2309 13.6992 40.6589 14.9875L39.851 16.8069H21.8593L21.0514 14.9875C20.7727 14.3596 20.7784 13.6422 21.0672 13.0189C21.3538 12.4003 21.8916 11.9359 22.543 11.745C23.3438 11.5101 23.0053 10.2202 22.1677 10.465C21.1474 10.7641 20.3052 11.4907 19.857 12.4583C19.4066 13.4304 19.3977 14.5495 19.8325 15.5287L20.759 17.6151V20.1124V29.3494C20.759 31.7598 22.1747 33.957 24.328 34.962L22.7235 37.1829L17.5893 39.364C15.2883 40.3415 13.6713 42.3977 13.264 44.8645L11.9338 52.9211C11.854 53.3442 12.1864 53.6811 12.5905 53.7084C12.8366 53.7084 13.0677 53.566 13.1813 53.3493L14.7517 50.3328C15.164 50.9772 15.8274 51.4364 16.5933 51.5441C16.4578 51.9543 16.3396 52.3709 16.2396 52.7938C16.0505 53.5937 17.3283 53.9862 17.5377 53.1007C17.8867 51.6239 18.4757 50.2279 19.2892 48.9454C19.6718 48.924 20.0619 48.8256 20.4483 48.622C21.6479 47.9897 22.1909 46.7047 22.334 45.5539C24.7465 43.6325 27.7614 42.5771 30.8553 42.5771C33.9313 42.5771 36.9852 43.6446 39.3896 45.5644C39.5346 46.7127 40.0779 47.9916 41.2738 48.622C41.6564 48.8236 42.0424 48.9216 42.4212 48.9444C43.2305 50.2201 43.8253 51.6303 44.1729 53.1007C44.3684 53.9281 45.6698 53.6347 45.4709 52.7938C45.3711 52.3716 45.2532 51.9554 45.1179 51.5457C45.8424 51.4469 46.5463 51.0081 46.9369 50.385L48.5458 53.3587C48.8904 53.9961 49.9289 53.6812 49.8053 52.9328ZM33.1595 40.1791C32.7126 39.0944 32.2659 38.0099 31.8191 36.9253C33.2803 36.6929 34.7198 35.9751 36.098 35.4614L37.5891 37.5255L33.1595 40.1791ZM39.6177 18.1405V19.4454H22.0927V18.1405H39.6177ZM39.5378 20.7792C39.2398 21.9977 38.1446 22.904 36.8428 22.904H24.8677C23.5658 22.904 22.4706 21.9977 22.1727 20.7792H39.5378ZM22.0927 29.3493V23.1516C22.8244 23.8256 23.7989 24.2379 24.8677 24.2379H36.8428C37.9116 24.2379 38.8861 23.8256 39.6177 23.1516V29.3493C39.6177 31.3692 38.3523 33.1979 36.4686 33.8999L36.1265 34.0275L30.8553 35.6389L25.5829 34.027L25.2419 33.8999C23.3583 33.1979 22.0927 31.3692 22.0927 29.3493ZM25.6124 35.4615C26.9906 35.9752 28.43 36.6929 29.8914 36.9253C29.4446 38.0099 28.9978 39.0944 28.551 40.1791L24.1214 37.5255L25.6124 35.4615ZM18.1108 40.5917L23.1036 38.4706L28.1462 41.4913C26.0387 41.8786 24.0292 42.7131 22.266 43.9421C22.1515 43.456 21.917 42.9376 21.4363 42.7225C20.3592 42.2409 18.8215 43.0261 18.2105 43.3862C16.9558 44.1256 15.9184 45.177 15.362 46.2724C15.3615 46.2735 15.3608 46.2744 15.3602 46.2754L13.9288 49.0251L14.5799 45.0818C14.9124 43.0682 16.2324 41.3896 18.1108 40.5917ZM16.9515 50.2363C16.043 50.2363 15.4026 49.2251 15.8042 48.4038L16.157 47.6821C16.5885 48.0355 17.1892 48.4499 17.8738 48.7063C17.5858 49.1994 17.3271 49.7068 17.0986 50.227C17.0498 50.2328 17.0008 50.2363 16.9515 50.2363ZM19.8263 47.4421C18.755 48.0068 17.4122 47.0144 16.7904 46.4641C17.9129 44.7521 20.2118 43.7316 20.8502 43.9245C20.9388 44.0565 21.0706 44.5149 21.0334 45.1476C21.0331 45.1507 21.033 45.1538 21.0327 45.1569C21.0247 45.2879 21.01 45.4257 20.9855 45.5702C20.8981 46.0872 20.6313 47.0178 19.8263 47.4421ZM29.6629 41.2917L29.5971 41.1412L30.8552 38.0871L31.5079 39.6713L32.1231 41.1648L32.0765 41.2939C31.6713 41.2607 31.264 41.2432 30.8553 41.2432C30.4563 41.2433 30.0586 41.2601 29.6629 41.2917ZM40.7364 45.5702C40.593 44.7224 40.7642 44.0844 40.8717 43.9245C41.5098 43.7311 43.8102 44.7529 44.9324 46.4653C44.3131 47.0164 42.9738 48.0105 41.8956 47.4421C41.0908 47.0178 40.8239 46.0872 40.7364 45.5702ZM45.8247 49.6498C45.5647 50.0446 45.0841 50.2864 44.6107 50.2248C44.383 49.7067 44.1253 49.2013 43.8388 48.71C44.5273 48.4539 45.1315 48.0372 45.5651 47.6821C45.7179 47.9698 45.9093 48.2975 45.9977 48.6155C46.0916 48.943 46.0121 49.3782 45.8247 49.6498Z" fill="white"/>
<path d="M29.9323 44.2175C29.7901 44.0909 29.601 44.0313 29.4114 44.0533C24.5331 44.6255 20.4731 48.0417 19.0683 52.7566C18.8331 53.5461 20.0882 54.004 20.3465 53.1374C21.5267 49.1762 24.8089 46.2432 28.8222 45.4913V51.4777C28.8222 51.9239 28.7744 52.3706 28.6798 52.8055C28.5027 53.6211 29.7981 53.9412 29.9832 53.0886C30.0978 52.5609 30.1559 52.0189 30.1559 51.4778V44.7158C30.156 44.5253 30.0746 44.344 29.9323 44.2175Z" fill="white"/>
<path d="M32.2993 44.0534C32.1096 44.0312 31.9205 44.091 31.7783 44.2175C31.6361 44.344 31.5547 44.5253 31.5547 44.7158V51.4778C31.5547 52.019 31.6128 52.561 31.7274 53.0887C31.9045 53.904 33.2159 53.6583 33.0307 52.8055C32.9362 52.3706 32.8884 51.9239 32.8884 51.4777V45.4913C36.9018 46.2432 40.1838 49.1763 41.3641 53.1375C41.6062 53.9505 42.8893 53.5858 42.6423 52.7566C41.2377 48.0418 37.1777 44.6255 32.2993 44.0534Z" fill="white"/>
<path d="M30.8569 32.3865C31.9389 32.3865 32.9536 31.931 33.7139 31.1038C34.2788 30.4896 33.3222 29.5586 32.732 30.2013C32.2272 30.7504 31.5613 31.0527 30.8569 31.0527C30.1525 31.0527 29.4866 30.7504 28.9818 30.2013C28.4172 29.5869 27.4093 30.4616 27.9999 31.1038C28.7602 31.931 29.7748 32.3865 30.8569 32.3865Z" fill="white"/>
</svg>
