<svg width="62" height="62" viewBox="0 0 62 62" fill="none" xmlns="http://www.w3.org/2000/svg">
<rect x="0.945312" y="0.609375" width="60.7023" height="60.7023" rx="12" fill="#1699F8"/>
<path d="M44.5511 18.4713C44.3507 18.4713 44.1541 18.3898 44.0123 18.2481C43.8706 18.1063 43.7891 17.9097 43.7891 17.7093C43.7891 17.5089 43.8706 17.3123 44.0123 17.1705C44.1541 17.0289 44.3507 16.9473 44.5511 16.9473C44.7515 16.9473 44.9481 17.0288 45.0898 17.1705C45.2316 17.3123 45.3131 17.5089 45.3131 17.7093C45.3131 17.9105 45.2316 18.1063 45.0898 18.2481C44.9481 18.3898 44.7515 18.4713 44.5511 18.4713Z" fill="white"/>
<path d="M31.3 50.4721C27.2538 50.4722 23.2998 49.2181 20.0053 46.8753L14.9701 48.2244C14.707 48.2948 14.4265 48.2197 14.234 48.0272C14.0415 47.8347 13.9663 47.5541 14.0367 47.2912L15.3859 42.256C12.7799 38.5914 11.5211 34.1103 11.8368 29.5949C12.1645 24.9085 14.1766 20.496 17.5024 17.1701C24.1598 10.5128 34.6098 9.55212 42.3503 14.8859C42.6968 15.1248 42.7842 15.5992 42.5453 15.9458C42.3066 16.2925 41.832 16.3797 41.4854 16.1409C34.3506 11.2243 24.7176 12.1104 18.5802 18.2478C12.3306 24.4973 11.5775 34.5577 16.8284 41.6489C16.9667 41.8356 17.0122 42.0752 16.9521 42.2996L15.8505 46.4107L19.9616 45.3091C20.1859 45.2491 20.4256 45.2946 20.6123 45.4327C27.7038 50.6837 37.7641 49.9306 44.0135 43.6811C50.151 37.5436 51.0369 27.9103 46.1201 20.7754C45.8813 20.4288 45.9686 19.9543 46.3152 19.7155C46.6617 19.4767 47.1363 19.564 47.3751 19.9105C52.7092 27.6511 51.7488 38.1013 45.0912 44.7588C41.7653 48.0847 37.3529 50.0967 32.6665 50.4245C32.2105 50.4563 31.7544 50.4721 31.3 50.4721Z" fill="white"/>
<path d="M31.1736 36.9379C29.8461 36.9379 28.7712 35.8631 28.7712 34.5419C28.7712 32.0288 30.1785 29.7594 32.4439 28.6193C33.4451 28.1155 34.0587 27.0648 34.0071 25.9426C33.945 24.5918 32.6583 23.3052 31.3076 23.243C30.5217 23.2074 29.776 23.4845 29.2096 24.0255C28.8718 24.3481 28.6262 24.7311 28.4797 25.1635C28.1471 26.1458 27.2393 26.8125 26.2208 26.8225V26.8226C26.2127 26.8227 26.2047 26.8227 26.1967 26.8227C25.4317 26.8227 24.7067 26.4554 24.2532 25.8368C23.7943 25.2108 23.6685 24.4311 23.908 23.6974C24.294 22.5148 24.9813 21.4284 25.8954 20.5554C27.4187 19.1005 29.4185 18.3532 31.5281 18.4497C33.3767 18.5347 35.1538 19.3404 36.5318 20.7184C37.9097 22.0963 38.7154 23.8733 38.8004 25.7221C38.9389 28.7322 37.2906 31.552 34.601 32.9056C33.9648 33.2258 33.5695 33.8528 33.5695 34.542C33.5697 35.8631 32.4948 36.9379 31.1736 36.9379ZM31.1684 21.7158C31.238 21.7158 31.3078 21.7174 31.3779 21.7207C33.5292 21.8196 35.4306 23.7209 35.5295 25.8725C35.6087 27.5944 34.6665 29.2069 33.1291 29.9807C31.3811 30.8603 30.2952 32.6081 30.2952 34.5418C30.2952 35.0226 30.6864 35.4138 31.1672 35.4138C31.6544 35.4138 32.0456 35.0226 32.0456 34.5418C32.0456 33.2733 32.7622 32.1247 33.916 31.5441C36.0692 30.4604 37.3889 28.2025 37.278 25.7921C37.2105 24.3237 36.5628 22.9045 35.4541 21.796C34.3454 20.6874 32.9263 20.0397 31.4581 19.9721C29.7692 19.8954 28.1674 20.4929 26.948 21.6575C26.2049 22.3672 25.6695 23.2127 25.3569 24.1704C25.2716 24.4316 25.3174 24.7106 25.4823 24.9357C25.6517 25.1666 25.9114 25.2986 26.1962 25.2986C26.1993 25.2986 26.2019 25.297 26.2056 25.2985C26.5772 25.2949 26.9111 25.0441 27.0362 24.6746C27.2592 24.0162 27.6467 23.4107 28.1568 22.9234C28.9769 22.1402 30.0395 21.7158 31.1684 21.7158Z" fill="white"/>
<path d="M31.1727 43.4879C29.8497 43.4879 28.7734 42.4116 28.7734 41.0887C28.7734 39.7657 29.8497 38.6895 31.1727 38.6895C32.4956 38.6895 33.5719 39.7657 33.5719 41.0887C33.5719 42.4116 32.4956 43.4879 31.1727 43.4879ZM31.1727 40.2135C30.6901 40.2135 30.2975 40.6061 30.2975 41.0887C30.2975 41.5712 30.6901 41.9638 31.1727 41.9638C31.6553 41.9638 32.0479 41.5712 32.0479 41.0887C32.0479 40.6061 31.6553 40.2135 31.1727 40.2135Z" fill="white"/>
</svg>
