<svg width="62" height="61" viewBox="0 0 62 61" fill="none" xmlns="http://www.w3.org/2000/svg">
<rect x="0.945312" y="0.015625" width="60.7023" height="60.7023" rx="12" fill="#1699F8"/>
<g clip-path="url(#clip0_4880_320)">
<path d="M43.0494 43.729H12.1168C9.7893 43.729 7.89579 41.8356 7.89579 39.5081V21.2242C7.89579 18.8967 9.7893 17.0032 12.1168 17.0032H16.8328C17.2549 17.0032 17.5971 16.6611 17.5971 16.2389C17.5971 15.8167 17.2549 15.4746 16.8328 15.4746H12.1168C8.94641 15.4746 6.36719 18.0538 6.36719 21.2242V39.5081C6.36719 42.6785 8.94641 45.2576 12.1168 45.2576H43.0494C43.4715 45.2576 43.8137 44.9155 43.8137 44.4933C43.8137 44.0711 43.4715 43.729 43.0494 43.729Z" fill="white"/>
<path d="M50.4795 15.4746H19.8893C19.4672 15.4746 19.125 15.8167 19.125 16.2389C19.125 16.6611 19.4672 17.0032 19.8893 17.0032H50.4795C52.807 17.0032 54.7005 18.8967 54.7005 21.2242V39.5081C54.7005 41.8356 52.807 43.729 50.4795 43.729H46.1059C45.6838 43.729 45.3416 44.0711 45.3416 44.4933C45.3416 44.9155 45.6838 45.2576 46.1059 45.2576H50.4795C53.6499 45.2576 56.2291 42.6784 56.2291 39.5081V21.2242C56.2291 18.0538 53.6499 15.4746 50.4795 15.4746Z" fill="white"/>
<path d="M50.4839 19.043H12.1204C10.9167 19.043 9.9375 20.0223 9.9375 21.2258V39.5096C9.9375 40.7132 10.9167 41.6925 12.1204 41.6925H50.4839C51.6875 41.6925 52.6666 40.7132 52.6666 39.5096V21.2258C52.6666 20.0222 51.6875 19.043 50.4839 19.043ZM51.1379 39.5096C51.1379 39.8703 50.8445 40.1639 50.4838 40.1639H12.1204C11.7596 40.1639 11.4661 39.8703 11.4661 39.5096V36.5971H51.1379V39.5096ZM51.1379 35.0685H11.4661V25.6669H51.1379V35.0685ZM51.1379 24.1383H11.4661V21.2258C11.4661 20.8651 11.7596 20.5716 12.1204 20.5716H50.4839C50.8445 20.5716 51.1379 20.8651 51.1379 21.2258V24.1383Z" fill="white"/>
<path d="M16.1384 26.5996H14.3336L13.0781 34.4464H14.2104L14.4233 33.0228H15.9367L16.1496 34.4464H17.394L16.1384 26.5996ZM14.5802 31.9578L15.1744 27.9895L15.7686 31.9578H14.5802Z" fill="white"/>
<path d="M21.2828 30.2633C21.832 30.0056 22.0786 29.4899 22.0786 28.6827V28.4024C22.0786 27.1918 21.5293 26.5977 20.2514 26.5977H18.3906V34.4445H20.3299C21.5629 34.4446 22.2019 33.7944 22.2019 32.5838V31.9447C22.202 31.1153 21.9442 30.5211 21.2828 30.2633ZM19.6238 27.7188H20.2179C20.6551 27.7188 20.8457 27.9654 20.8457 28.5259V28.963C20.8457 29.5908 20.5654 29.7927 20.1058 29.7927H19.6238V27.7188ZM20.969 32.5503C20.969 33.1332 20.7448 33.3238 20.33 33.3238H19.6238V30.9136H20.173C20.7335 30.9136 20.9689 31.1378 20.9689 31.8664V32.5503H20.969Z" fill="white"/>
<path d="M26.9424 29.2449V28.4826C26.9424 27.2271 26.3146 26.5098 25.104 26.5098C23.8934 26.5098 23.2656 27.2272 23.2656 28.4826V32.563C23.2656 33.8185 23.8933 34.5359 25.104 34.5359C26.3146 34.5359 26.9424 33.8184 26.9424 32.563V31.5206H25.7766V32.6415C25.7766 33.202 25.53 33.4037 25.1376 33.4037C24.7452 33.4037 24.4987 33.202 24.4987 32.6415V28.4042C24.4987 27.8437 24.7452 27.6307 25.1376 27.6307C25.53 27.6307 25.7766 27.8437 25.7766 28.4042V29.2449H26.9424Z" fill="white"/>
<path d="M32.4685 29.9609H30.2266V31.0819H32.4685V29.9609Z" fill="white"/>
<path d="M38.0206 26.5996C37.83 27.1265 37.617 27.5861 36.6641 27.5861V28.4604H37.617V34.4464H38.85V26.5996H38.0206Z" fill="white"/>
<path d="M41.9986 33.3253C41.9874 33.2692 41.9874 33.2132 41.9874 33.1571C41.9874 31.868 44.4424 30.9487 44.4424 28.4826C44.4424 27.2271 43.8146 26.5098 42.604 26.5098C41.3934 26.5098 40.7656 27.2272 40.7656 28.4826V29.2449H41.9314V28.4042C41.9314 27.8437 42.1779 27.6307 42.5704 27.6307C42.9628 27.6307 43.2094 27.8213 43.2094 28.5274C43.2094 30.7918 40.7657 31.173 40.7657 33.4822V34.4462H44.3303V33.3253H44.3302H41.9986Z" fill="white"/>
<path d="M49.2393 28.6844V28.4826C49.2393 27.2271 48.6115 26.5098 47.4009 26.5098C46.1903 26.5098 45.5625 27.2272 45.5625 28.4826V28.9086H46.7282V28.4042C46.7282 27.8437 46.9749 27.6307 47.3673 27.6307C47.7597 27.6307 48.0063 27.8213 48.0063 28.5274V28.9645C48.0063 29.5923 47.726 29.7942 47.2664 29.7942H46.7845V30.9151H47.1992C47.7597 30.9151 48.0064 31.1843 48.0064 31.9127V32.5293C48.0064 33.2243 47.7598 33.4149 47.3674 33.4149C46.975 33.4149 46.7283 33.2019 46.7283 32.6414V31.9127H45.5626V32.5629C45.5626 33.8184 46.1904 34.5358 47.401 34.5358C48.6116 34.5358 49.2394 33.8183 49.2394 32.5629V31.9463C49.2394 31.1505 48.9928 30.5675 48.3762 30.2985C48.9702 30.0521 49.2393 29.5252 49.2393 28.6844Z" fill="white"/>
<path d="M18.9233 23.204C19.3857 23.204 19.7606 22.8291 19.7606 22.3666C19.7606 21.9042 19.3857 21.5293 18.9233 21.5293C18.4608 21.5293 18.0859 21.9042 18.0859 22.3666C18.0859 22.8291 18.4608 23.204 18.9233 23.204Z" fill="white"/>
<path d="M18.9233 39.2196C19.3857 39.2196 19.7606 38.8447 19.7606 38.3823C19.7606 37.9198 19.3857 37.5449 18.9233 37.5449C18.4608 37.5449 18.0859 37.9198 18.0859 38.3823C18.0859 38.8447 18.4608 39.2196 18.9233 39.2196Z" fill="white"/>
<path d="M43.6733 23.204C44.1357 23.204 44.5106 22.8291 44.5106 22.3666C44.5106 21.9042 44.1357 21.5293 43.6733 21.5293C43.2108 21.5293 42.8359 21.9042 42.8359 22.3666C42.8359 22.8291 43.2108 23.204 43.6733 23.204Z" fill="white"/>
<path d="M43.6733 39.2196C44.1357 39.2196 44.5106 38.8447 44.5106 38.3823C44.5106 37.9198 44.1357 37.5449 43.6733 37.5449C43.2108 37.5449 42.8359 37.9198 42.8359 38.3823C42.8359 38.8447 43.2108 39.2196 43.6733 39.2196Z" fill="white"/>
</g>
<defs>
<clipPath id="clip0_4880_320">
<rect width="49.8626" height="49.8626" fill="white" transform="translate(6.36719 5.43555)"/>
</clipPath>
</defs>
</svg>
