<svg width="30" height="30" viewBox="0 0 30 30" fill="none" xmlns="http://www.w3.org/2000/svg">
<rect width="30" height="30" rx="8" fill="#1699F8"/>
<path d="M20.0026 15.0001C19.9986 14.5617 19.8219 14.1426 19.5109 13.8335L15.9359 10.2501C15.7798 10.0949 15.5686 10.0078 15.3484 10.0078C15.1283 10.0078 14.9171 10.0949 14.7609 10.2501C14.6828 10.3276 14.6208 10.4198 14.5785 10.5213C14.5362 10.6229 14.5144 10.7318 14.5144 10.8418C14.5144 10.9518 14.5362 11.0607 14.5785 11.1623C14.6208 11.2638 14.6828 11.356 14.7609 11.4335L17.5026 14.1668H9.16927C8.94826 14.1668 8.7363 14.2546 8.58002 14.4109C8.42374 14.5672 8.33594 14.7791 8.33594 15.0001C8.33594 15.2212 8.42374 15.4331 8.58002 15.5894C8.7363 15.7457 8.94826 15.8335 9.16927 15.8335H17.5026L14.7609 18.5751C14.604 18.731 14.5154 18.9427 14.5146 19.1639C14.5139 19.385 14.601 19.5974 14.7568 19.7543C14.9126 19.9112 15.1244 19.9998 15.3455 20.0006C15.5666 20.0014 15.779 19.9143 15.9359 19.7585L19.5109 16.1751C19.8239 15.864 20.0007 15.4415 20.0026 15.0001Z" fill="white"/>
</svg>
