<svg width="61" height="61" viewBox="0 0 61 61" fill="none" xmlns="http://www.w3.org/2000/svg">
<rect width="60.7023" height="60.7023" rx="12" fill="#1699F8"/>
<g clip-path="url(#clip0_4880_298)">
<path d="M17.8114 29.1047L13.838 28.2477C12.7472 28.0139 11.7344 28.871 11.7344 29.9617V31.5978C11.7344 32.9223 12.7472 33.2339 13.9938 33.2339H18.3568C19.2138 33.2339 20.0708 33.0781 20.0708 32.1432V31.9095C20.0708 30.5071 19.1359 29.3384 17.8114 29.1047ZM13.2147 31.5978C13.2147 31.5199 13.2147 31.5199 13.2147 29.8838C13.2147 29.728 13.3705 29.5722 13.5263 29.6501L17.4997 30.5071C18.0451 30.6629 18.4347 31.1304 18.5126 31.6757C15.7857 31.6757 13.4484 31.6757 13.2147 31.5978Z" fill="white"/>
<path d="M53.1809 20.7676L47.5714 18.1186C45.7015 17.2616 43.6758 16.95 41.7281 17.3395L40.8711 15.6255C40.2478 14.0673 38.7675 12.9766 37.0535 12.9766H18.8224C17.1084 12.9766 15.6281 13.9894 15.0048 15.5476L11.9663 21.8583C11.2651 20.8455 10.0965 20.2222 8.84993 20.2222H7.52545C6.3568 20.2222 5.42188 21.1571 5.42188 22.3258V23.1828C5.42188 24.3515 6.3568 25.2864 7.52545 25.2864H9.55112C8.69411 26.3771 8.30456 27.7795 8.30456 29.1819V33.8565C8.30456 35.6485 8.92784 37.3625 10.1744 38.8428V42.3487C10.1744 43.907 11.421 45.1535 12.9792 45.1535H15.8619C17.4201 45.1535 18.6666 43.907 18.6666 42.3487V40.9464H34.2487C37.6767 45.621 43.0526 47.6466 43.1305 47.6466C43.2863 47.7246 43.4421 47.7246 43.6758 47.6466C43.7537 47.5687 55.2845 43.3616 55.2845 32.8437V24.1177C55.2845 22.7154 54.4275 21.3909 53.1809 20.7676ZM16.4072 16.1709C16.7968 15.1581 17.7317 14.5348 18.8224 14.5348H37.0535C38.1442 14.5348 39.0791 15.1581 39.5466 16.2488L40.2478 17.7291C39.9361 17.807 39.6245 17.9628 39.3129 18.1186L33.7033 20.7676C32.4567 21.3909 31.5997 22.6374 31.5997 24.0398H12.5117C12.8234 23.5724 12.5117 24.3515 16.4072 16.1709ZM6.98008 23.1828V22.3258C6.98008 22.0142 7.21381 21.7804 7.52545 21.7804H8.84993C10.4081 21.7804 10.9535 23.1828 11.1093 23.4165C11.0314 23.5724 10.9535 23.6503 10.7977 23.8061H7.52545C7.21381 23.7282 6.98008 23.4945 6.98008 23.1828ZM17.1084 42.2708C17.1084 42.972 16.563 43.5174 15.8619 43.5174H12.9013C12.2001 43.5953 11.6547 42.972 11.6547 42.2708V40.0114C12.5896 40.5568 13.6804 40.8684 14.7711 40.8684H17.1084V42.2708ZM14.6932 39.3882C11.8884 39.3882 9.70694 36.6613 9.70694 33.7786V29.104C9.70694 27.7795 10.2523 26.533 11.1872 25.5201H31.5997V32.3762H23.0296C22.6401 32.3762 22.2505 32.6879 22.2505 33.1553C22.2505 33.6228 22.5621 33.9344 23.0296 33.9344H31.6776C31.7556 34.4798 31.7556 34.9473 31.9114 35.4147H23.0296C22.6401 35.4147 22.2505 35.7264 22.2505 36.1938C22.2505 36.6613 22.5621 36.9729 23.0296 36.9729H32.223C32.5347 37.8299 32.8463 38.687 33.3138 39.3882H14.6932ZM53.7263 32.8437C53.7263 41.4917 45.0003 45.4652 43.4421 46.0884C37.8326 43.829 33.1579 38.9986 33.1579 32.8437C33.1579 29.961 33.1579 28.4028 33.1579 24.1177C33.1579 23.2607 33.6254 22.5595 34.4045 22.17L40.014 19.521C42.2734 18.4303 44.7666 18.4303 47.026 19.521L52.6355 22.17C53.3367 22.5595 53.8821 23.2607 53.8821 24.1177V32.8437H53.7263Z" fill="white"/>
<path d="M51.0738 23.9624L45.9317 21.5472C44.3735 20.7681 42.4258 20.7681 40.8676 21.5472L35.8034 23.9624C35.5697 24.1183 35.3359 24.352 35.3359 24.6636V32.8442C35.3359 38.9991 40.7117 42.3493 43.0491 43.5179C43.2828 43.5958 43.5165 43.5958 43.7502 43.5179C46.0876 42.3493 51.4634 38.9991 51.4634 32.8442V24.6636C51.4634 24.352 51.3075 24.1183 51.0738 23.9624ZM49.9831 32.8442C49.9831 37.8305 45.6201 40.7911 43.4386 41.9597C40.8676 40.5573 36.8941 37.7526 36.8941 32.8442V25.1311L41.5688 22.8717C42.7374 22.3263 44.1398 22.3263 45.3085 22.8717L49.9831 25.1311V32.8442Z" fill="white"/>
<path d="M40.4012 32.6108C40.0896 32.3771 39.6221 32.455 39.3105 32.7666C38.9989 33.0783 39.1547 33.5458 39.4663 33.8574L42.4269 36.1168C42.7385 36.3505 43.206 36.2726 43.5177 35.961L47.8806 30.2735C48.1144 29.9619 48.0364 29.4944 47.7248 29.1828C47.4132 28.949 46.9457 29.027 46.6341 29.3386L42.7386 34.4028L40.4012 32.6108Z" fill="white"/>
</g>
<defs>
<clipPath id="clip0_4880_298">
<rect width="49.8626" height="49.8626" fill="white" transform="translate(5.42188 5.41992)"/>
</clipPath>
</defs>
</svg>
