<svg width="32" height="32" viewBox="0 0 32 32" fill="none" xmlns="http://www.w3.org/2000/svg">
<path d="M8.54649 12H23.4532C23.7169 12.0011 23.9743 12.0804 24.193 12.2278C24.4116 12.3752 24.5816 12.5842 24.6815 12.8282C24.7814 13.0722 24.8067 13.3404 24.7542 13.5988C24.7017 13.8573 24.5737 14.0943 24.3865 14.28L16.9465 21.72C16.8225 21.845 16.6751 21.9442 16.5126 22.0119C16.3501 22.0795 16.1758 22.1144 15.9998 22.1144C15.8238 22.1144 15.6495 22.0795 15.4871 22.0119C15.3246 21.9442 15.1771 21.845 15.0532 21.72L7.61316 14.28C7.42593 14.0943 7.29797 13.8573 7.24546 13.5988C7.19294 13.3404 7.21824 13.0722 7.31814 12.8282C7.41804 12.5842 7.58806 12.3752 7.8067 12.2278C8.02535 12.0804 8.2828 12.0011 8.54649 12Z" fill="#1699F8"/>
</svg>
