<svg width="16" height="14" viewBox="0 0 18 16" fill="none" xmlns="http://www.w3.org/2000/svg">
<path d="M18 7.99348C17.9937 7.2915 17.7212 6.62036 17.2414 6.12547L11.7257 0.388003C11.4848 0.13949 11.159 0 10.8193 0C10.4796 0 10.1538 0.13949 9.91286 0.388003C9.79235 0.512043 9.6967 0.659618 9.63143 0.822214C9.56615 0.98481 9.53255 1.15921 9.53255 1.33535C9.53255 1.5115 9.56615 1.68589 9.63143 1.84849C9.6967 2.01109 9.79235 2.15866 9.91286 2.2827L14.1429 6.65919H1.28571C0.944722 6.65919 0.617695 6.79976 0.376577 7.04999C0.135459 7.30022 0 7.6396 0 7.99348C0 8.34736 0.135459 8.68674 0.376577 8.93697C0.617695 9.1872 0.944722 9.32778 1.28571 9.32778H14.1429L9.91286 13.7176C9.67075 13.9671 9.53406 14.3062 9.53286 14.6602C9.53165 15.0143 9.66603 15.3544 9.90643 15.6056C10.1468 15.8569 10.4736 15.9987 10.8147 16C11.1559 16.0012 11.4836 15.8618 11.7257 15.6123L17.2414 9.87484C17.7243 9.37668 17.9971 8.70009 18 7.99348Z" fill="#1699F8"/>
</svg>
