<svg width="48" height="48" viewBox="0 0 48 48" fill="none" xmlns="http://www.w3.org/2000/svg">
<rect x="0.75" y="0.75" width="46.5" height="46.5" rx="11.25" stroke="#0F203C" stroke-width="1.5"/>
<path d="M35.12 21.9089L31.25 17.9989C31.157 17.9052 31.0464 17.8308 30.9246 17.78C30.8027 17.7293 30.672 17.7031 30.54 17.7031C30.408 17.7031 30.2773 17.7293 30.1554 17.78C30.0336 17.8308 29.923 17.9052 29.83 17.9989C29.6437 18.1863 29.5392 18.4397 29.5392 18.7039C29.5392 18.9681 29.6437 19.2216 29.83 19.4089L33.39 22.9989H13C12.7348 22.9989 12.4804 23.1043 12.2929 23.2918C12.1054 23.4794 12 23.7337 12 23.9989C12 24.2641 12.1054 24.5185 12.2929 24.706C12.4804 24.8936 12.7348 24.9989 13 24.9989H33.45L29.83 28.6089C29.7363 28.7019 29.6619 28.8125 29.6111 28.9343C29.5603 29.0562 29.5342 29.1869 29.5342 29.3189C29.5342 29.4509 29.5603 29.5816 29.6111 29.7035C29.6619 29.8254 29.7363 29.936 29.83 30.0289C29.923 30.1227 30.0336 30.197 30.1554 30.2478C30.2773 30.2986 30.408 30.3247 30.54 30.3247C30.672 30.3247 30.8027 30.2986 30.9246 30.2478C31.0464 30.197 31.157 30.1227 31.25 30.0289L35.12 26.1489C35.6818 25.5864 35.9974 24.8239 35.9974 24.0289C35.9974 23.2339 35.6818 22.4714 35.12 21.9089Z" fill="#0F203C"/>
</svg>
