<svg width="48" height="48" viewBox="0 0 48 48" fill="none" xmlns="http://www.w3.org/2000/svg">
<rect x="-0.75" y="0.75" width="46.5" height="46.5" rx="11.25" transform="matrix(-1 0 0 1 46.5 0)" stroke="#0F203C" stroke-width="1.5"/>
<path d="M12.88 21.9089L16.75 17.9989C16.843 17.9052 16.9536 17.8308 17.0754 17.78C17.1973 17.7293 17.328 17.7031 17.46 17.7031C17.592 17.7031 17.7227 17.7293 17.8446 17.78C17.9664 17.8308 18.077 17.9052 18.17 17.9989C18.3563 18.1863 18.4608 18.4397 18.4608 18.7039C18.4608 18.9681 18.3563 19.2216 18.17 19.4089L14.61 22.9989H35C35.2652 22.9989 35.5196 23.1043 35.7071 23.2918C35.8946 23.4794 36 23.7337 36 23.9989C36 24.2641 35.8946 24.5185 35.7071 24.706C35.5196 24.8936 35.2652 24.9989 35 24.9989H14.55L18.17 28.6089C18.2637 28.7019 18.3381 28.8125 18.3889 28.9343C18.4397 29.0562 18.4658 29.1869 18.4658 29.3189C18.4658 29.4509 18.4397 29.5816 18.3889 29.7035C18.3381 29.8254 18.2637 29.936 18.17 30.0289C18.077 30.1227 17.9664 30.197 17.8446 30.2478C17.7227 30.2986 17.592 30.3247 17.46 30.3247C17.328 30.3247 17.1973 30.2986 17.0754 30.2478C16.9536 30.197 16.843 30.1227 16.75 30.0289L12.88 26.1489C12.3182 25.5864 12.0026 24.8239 12.0026 24.0289C12.0026 23.2339 12.3182 22.4714 12.88 21.9089Z" fill="#0F203C"/>
</svg>
