<svg width="42" height="42" viewBox="0 0 42 42" fill="none" xmlns="http://www.w3.org/2000/svg">
<path d="M37.7999 37.8002V25.4942C37.7999 19.4462 36.4979 14.8262 29.4419 14.8262C26.0399 14.8262 23.7719 16.6742 22.8479 18.4382H22.7639V15.3722H16.0859V37.8002H23.0579V26.6702C23.0579 23.7302 23.6039 20.9162 27.2159 20.9162C30.7859 20.9162 30.8279 24.2342 30.8279 26.8382V37.7582H37.7999V37.8002Z" fill="white"/>
<path d="M4.75 15.3711H11.722V37.7991H4.75V15.3711Z" fill="white"/>
<path d="M8.23513 4.19922C6.00912 4.19922 4.20312 6.00522 4.20312 8.23122C4.20312 10.4572 6.00912 12.3052 8.23513 12.3052C10.4611 12.3052 12.2671 10.4572 12.2671 8.23122C12.2671 6.00522 10.4611 4.19922 8.23513 4.19922Z" fill="white"/>
</svg>
