<svg width="36" height="36" viewBox="0 0 36 36" fill="none" xmlns="http://www.w3.org/2000/svg">
<path d="M18 6C15.3489 6.00291 12.8072 7.05527 10.9325 8.92622C9.0578 10.7972 8.00318 13.3339 8 15.98C8 18.55 9.99379 22.572 13.9263 27.934C14.3944 28.5741 15.0074 29.0949 15.7153 29.4539C16.4232 29.8129 17.206 30 18 30C18.794 30 19.5768 29.8129 20.2847 29.4539C20.9926 29.0949 21.6056 28.5741 22.0737 27.934C26.0062 22.572 28 18.55 28 15.98C27.9968 13.3339 26.9422 10.7972 25.0675 8.92622C23.1928 7.05527 20.6511 6.00291 18 6ZM18 19.958C17.2074 19.958 16.4325 19.7234 15.7735 19.2839C15.1144 18.8443 14.6008 18.2196 14.2974 17.4887C13.9941 16.7578 13.9148 15.9535 14.0694 15.1776C14.224 14.4017 14.6057 13.689 15.1662 13.1296C15.7267 12.5702 16.4408 12.1892 17.2182 12.0348C17.9956 11.8805 18.8014 11.9597 19.5336 12.2625C20.2659 12.5652 20.8918 13.0779 21.3322 13.7357C21.7726 14.3935 22.0076 15.1669 22.0076 15.958C22.0076 17.0188 21.5854 18.0363 20.8338 18.7864C20.0822 19.5366 19.0629 19.958 18 19.958Z" fill="#1699F8"/>
</svg>
