<svg width="36" height="36" viewBox="0 0 36 36" fill="none" xmlns="http://www.w3.org/2000/svg">
<path d="M27.9617 12.7168L20.9467 19.6043C20.1645 20.3703 19.1048 20.8005 18 20.8005C16.8952 20.8005 15.8355 20.3703 15.0533 19.6043L8.03833 12.7168C8.02667 12.8461 8 12.9631 8 13.0915V22.9097C8.00132 23.9943 8.44073 25.0341 9.22185 25.801C10.003 26.5679 11.062 26.9993 12.1667 27.0006H23.8333C24.938 26.9993 25.997 26.5679 26.7782 25.801C27.5593 25.0341 27.9987 23.9943 28 22.9097V13.0915C28 12.9631 27.9733 12.8461 27.9617 12.7168Z" fill="#1699F8"/>
<path d="M19.7655 18.4467L27.3772 10.9726C27.0085 10.3724 26.4884 9.87549 25.8672 9.52996C25.2459 9.18444 24.5445 9.00192 23.8305 9H12.1639C11.4499 9.00192 10.7484 9.18444 10.1272 9.52996C9.50598 9.87549 8.98592 10.3724 8.61719 10.9726L16.2289 18.4467C16.6985 18.906 17.3343 19.1638 17.9972 19.1638C18.66 19.1638 19.2959 18.906 19.7655 18.4467Z" fill="#1699F8"/>
</svg>
