<svg width="36" height="36" viewBox="0 0 36 36" fill="none" xmlns="http://www.w3.org/2000/svg">
<path d="M8.00304 13.2046C8.00304 19.5693 16.4421 28 22.7984 28C24.1897 28 25.4892 27.4752 26.4473 26.5171L27.2804 25.5591C28.2467 24.5927 28.2467 22.9599 27.2387 21.9519C27.2137 21.9269 25.206 20.3857 25.206 20.3857C24.2063 19.436 22.6318 19.436 21.6404 20.3857L20.4242 21.3604C17.7583 20.2274 15.8673 18.328 14.651 15.5706L15.6173 14.3543C16.5754 13.3629 16.5754 11.7801 15.6173 10.7887C15.6173 10.7887 14.0761 8.78101 14.0512 8.75601C13.0431 7.748 11.4103 7.748 10.4023 8.75601L9.52757 9.51411C8.52788 10.5055 8.00304 11.8051 8.00304 13.1963V13.2046Z" fill="#1699F8"/>
</svg>
