<svg width="1920" height="525" viewBox="0 0 1920 525" fill="none" xmlns="http://www.w3.org/2000/svg">
<path fill-rule="evenodd" clip-rule="evenodd" d="M64 14.7743L0 21.8208V175V192V525H1920V192V175V21.8208L1856 43.0932C1792 64.3656 1664 106.91 1536 92.6845C1475.66 86.2289 1415.32 66.8617 1354.98 47.4944C1287.32 25.7783 1219.66 4.06221 1152 0.548367C1079.78 -3.20239 1007.56 12.9398 935.337 29.0821C879.558 41.5494 823.779 54.0167 768 57.3191C686.526 61.8043 605.051 46.1973 523.577 30.5903C477.051 21.678 430.526 12.7657 384 7.59485C256 -6.09926 128 7.19599 64 14.7743Z" fill="#0F203C"/>
</svg>
