<svg width="32" height="32" viewBox="0 0 32 32" fill="none" xmlns="http://www.w3.org/2000/svg">
<rect width="32" height="32" rx="8" fill="#0F203C" fill-opacity="0.05"/>
<path d="M10.9072 13H21.0928C21.273 13.0008 21.4489 13.0549 21.5983 13.1557C21.7477 13.2564 21.8638 13.3991 21.9321 13.5659C22.0004 13.7326 22.0176 13.9159 21.9818 14.0925C21.9459 14.269 21.8584 14.431 21.7305 14.5579L16.6468 19.6416C16.5622 19.7269 16.4614 19.7947 16.3504 19.841C16.2393 19.8872 16.1203 19.911 16 19.911C15.8797 19.911 15.7607 19.8872 15.6496 19.841C15.5386 19.7947 15.4378 19.7269 15.3532 19.6416L10.2695 14.5579C10.1416 14.431 10.0541 14.269 10.0182 14.0925C9.98237 13.9159 9.99965 13.7326 10.0679 13.5659C10.1362 13.3991 10.2523 13.2564 10.4017 13.1557C10.5511 13.0549 10.727 13.0008 10.9072 13Z" fill="#0F203C"/>
</svg>
