<svg width="20" height="20" viewBox="0 0 20 20" fill="none" xmlns="http://www.w3.org/2000/svg">
<path d="M7.5 14.6545L7.5 5.33787C7.50069 5.17306 7.55024 5.01215 7.64237 4.8755C7.73451 4.73885 7.8651 4.63258 8.01762 4.57014C8.17015 4.50771 8.33777 4.4919 8.49928 4.52472C8.66079 4.55754 8.80894 4.63752 8.925 4.75453L13.575 9.40454C13.6531 9.482 13.7151 9.57417 13.7574 9.67572C13.7997 9.77727 13.8215 9.88619 13.8215 9.9962C13.8215 10.1062 13.7997 10.2151 13.7574 10.3167C13.7151 10.4182 13.6531 10.5104 13.575 10.5879L8.925 15.2379C8.80894 15.3549 8.66079 15.4349 8.49928 15.4677C8.33777 15.5005 8.17015 15.4847 8.01762 15.4223C7.8651 15.3598 7.73451 15.2536 7.64237 15.1169C7.55024 14.9803 7.50069 14.8193 7.5 14.6545Z" fill="#0F203C"/>
</svg>
