<svg width="57" height="57" viewBox="0 0 57 57" fill="none" xmlns="http://www.w3.org/2000/svg">
<g filter="url(#filter0_d_4880_1939)">
<rect x="4" width="49" height="49" rx="8" fill="white"/>
<path d="M41.4603 22.7344V26.268H30.2704V37.4579H26.7368V26.268H15.5469V22.7344H41.4603Z" fill="#0F203C"/>
<path d="M17.455 22.7344C17.2666 23.8881 17.266 25.1113 17.455 26.268H15.5469V22.7344H17.455Z" fill="#B9D4FF"/>
<path d="M41.455 22.7344V26.268H39.5469C39.7353 25.1137 39.7359 23.8911 39.5469 22.7344H41.455Z" fill="#B9D4FF"/>
<path d="M30.268 35.5469V37.455H26.7344V35.5469C27.8887 35.7353 29.1113 35.7359 30.268 35.5469Z" fill="#B9D4FF"/>
<path d="M33.4982 26.268H30.2708V29.4954C29.1718 29.893 27.8973 29.9153 26.7371 29.4954V26.268H23.5097C23.1122 25.1691 23.0898 23.8946 23.5097 22.7344H33.4982C33.8957 23.8333 33.9175 25.1078 33.4982 26.268Z" fill="#B9D4FF"/>
<path d="M28.5006 29.2121C31.1027 29.2121 33.2121 27.1027 33.2121 24.5006C33.2121 21.8985 31.1027 19.7891 28.5006 19.7891C25.8985 19.7891 23.7891 21.8985 23.7891 24.5006C23.7891 27.1027 25.8985 29.2121 28.5006 29.2121Z" fill="#0F203C"/>
<path d="M28.4964 26.8561C29.7974 26.8561 30.8522 25.8014 30.8522 24.5003C30.8522 23.1992 29.7974 22.1445 28.4964 22.1445C27.1953 22.1445 26.1406 23.1992 26.1406 24.5003C26.1406 25.8014 27.1953 26.8561 28.4964 26.8561Z" fill="#F6C90E"/>
<path d="M28.5 9.1875C20.0428 9.1875 13.1875 16.0428 13.1875 24.5C13.1875 32.9572 20.0428 39.8125 28.5 39.8125C36.9572 39.8125 43.8125 32.9572 43.8125 24.5C43.8125 16.0428 36.9572 9.1875 28.5 9.1875ZM28.5 36.2788C21.9922 36.2788 16.7212 31.0078 16.7212 24.5C16.7212 17.9922 21.9922 12.7212 28.5 12.7212C35.0078 12.7212 40.2788 17.9922 40.2788 24.5C40.2788 31.0078 35.0078 36.2788 28.5 36.2788Z" fill="#0F203C"/>
<path d="M42.4057 18.0949L39.6847 20.8158C38.5245 17.2763 35.727 14.4788 32.1875 13.3186L34.9084 10.5977C38.2183 12.1171 40.8862 14.785 42.4057 18.0949Z" fill="#B9D4FF"/>
<path d="M37.7796 20.2187L32.7825 15.2215C32.3225 14.7616 32.3225 14.016 32.7825 13.556L35.2814 11.0571C36.2013 10.1372 37.6931 10.1372 38.613 11.0571L41.9446 14.3888C42.8646 15.3087 42.8646 16.8005 41.9446 17.7204L39.4458 20.2193C38.9858 20.6787 38.2396 20.6787 37.7796 20.2187Z" fill="#F6C90E"/>
<path d="M34.45 16.8888L33.6172 16.056L35.6997 13.9735C35.93 13.7432 36.3028 13.7432 36.5325 13.9735C36.7627 14.2038 36.7627 14.5766 36.5325 14.8063L34.45 16.8888Z" fill="#F6C90E"/>
<path d="M36.95 19.3848L36.1172 18.5521L38.1997 16.4696C38.43 16.2393 38.8028 16.2393 39.0325 16.4696C39.2627 16.6999 39.2627 17.0727 39.0325 17.3023L36.95 19.3848Z" fill="#F6C90E"/>
<path d="M24.8119 13.3186C21.2724 14.4788 18.4749 17.2763 17.3147 20.8158L14.5938 18.0949C16.1132 14.785 18.7811 12.1171 22.091 10.5977L24.8119 13.3186Z" fill="#B9D4FF"/>
<path d="M19.2221 20.2187L24.2193 15.2215C24.6793 14.7616 24.6793 14.016 24.2193 13.556L21.7204 11.0571C20.8005 10.1372 19.3087 10.1372 18.3888 11.0571L15.0571 14.3888C14.1372 15.3087 14.1372 16.8005 15.0571 17.7204L17.556 20.2193C18.016 20.6787 18.7622 20.6787 19.2221 20.2187Z" fill="#F6C90E"/>
<path d="M22.5521 16.8888L23.3848 16.056L21.3023 13.9735C21.0721 13.7432 20.6993 13.7432 20.4696 13.9735C20.2393 14.2038 20.2393 14.5766 20.4696 14.8063L22.5521 16.8888Z" fill="#F6C90E"/>
<path d="M20.0521 19.3848L20.8848 18.5521L18.8023 16.4696C18.5721 16.2393 18.1993 16.2393 17.9696 16.4696C17.7393 16.6999 17.7393 17.0727 17.9696 17.3023L20.0521 19.3848Z" fill="#F6C90E"/>
</g>
<defs>
<filter id="filter0_d_4880_1939" x="0" y="0" width="57" height="57" filterUnits="userSpaceOnUse" color-interpolation-filters="sRGB">
<feFlood flood-opacity="0" result="BackgroundImageFix"/>
<feColorMatrix in="SourceAlpha" type="matrix" values="0 0 0 0 0 0 0 0 0 0 0 0 0 0 0 0 0 0 127 0" result="hardAlpha"/>
<feOffset dy="4"/>
<feGaussianBlur stdDeviation="2"/>
<feComposite in2="hardAlpha" operator="out"/>
<feColorMatrix type="matrix" values="0 0 0 0 0 0 0 0 0 0 0 0 0 0 0 0 0 0 0.25 0"/>
<feBlend mode="normal" in2="BackgroundImageFix" result="effect1_dropShadow_4880_1939"/>
<feBlend mode="normal" in="SourceGraphic" in2="effect1_dropShadow_4880_1939" result="shape"/>
</filter>
</defs>
</svg>
