<svg width="49" height="49" viewBox="0 0 49 49" fill="none" xmlns="http://www.w3.org/2000/svg">
<g filter="url(#filter0_d_4880_1988)">
<rect x="4" width="41" height="41" rx="8" fill="white"/>
<path d="M29.831 12.9883L22.1304 24.1469L21.0391 33.0739L32.4425 34.5033L34.3419 18.7288L29.831 12.9883Z" fill="#0060FF"/>
<path d="M37.7816 7.20043C37.3497 6.76856 36.7552 6.52919 36.1467 6.5025C35.4845 6.47346 34.8056 6.69648 34.3017 7.20043L28.6094 12.9115L29.1735 13.4757L29.7694 14.0715L31.4597 12.3618C33.0636 13.4222 35.2307 13.2314 36.6216 11.8404L37.7816 10.6804C38.7413 9.72064 38.7413 8.16014 37.7816 7.20043ZM36.6216 9.52038L35.4617 10.6804C34.7046 11.4374 33.5751 11.5976 32.6602 11.161L35.4617 8.3604C35.7821 8.03999 36.3012 8.03999 36.6216 8.3604C36.9413 8.68005 36.9413 9.20073 36.6216 9.52038Z" fill="#0060FF"/>
<path d="M31.4581 12.3592C33.062 13.4196 35.229 13.2288 36.62 11.8378L37.78 10.6778C38.7397 9.71814 38.7397 8.15763 37.78 7.19792C37.3481 6.76605 36.7536 6.52669 36.1451 6.5L29.1719 13.4732L29.7677 14.069L31.4581 12.3592ZM35.4601 8.3579C35.7805 8.03748 36.2996 8.03748 36.62 8.3579C36.9397 8.67755 36.9397 9.19823 36.62 9.51787L35.4601 10.6778C34.703 11.4349 33.5735 11.5951 32.6586 11.1585L35.4601 8.3579Z" fill="#0060FF"/>
<path d="M29.9679 12.6797H21.8876L10.5 24.0278L14.5603 28.0881L18.6206 32.1484L29.9687 20.7924L29.9679 12.6797Z" fill="#0060FF"/>
<path d="M29.9631 20.7924V12.6797L14.5547 28.0881L18.615 32.1484L29.9631 20.7924Z" fill="white" fill-opacity="0.2"/>
<path d="M25.7103 18.1326L25.1149 17.5372L24.5503 16.9727L23.2729 18.25C22.3604 17.8202 21.245 17.9593 20.4904 18.7126C19.5359 19.6671 19.5311 21.216 20.4751 22.177C20.8343 22.5427 20.7908 23.0529 20.4904 23.3533C20.1732 23.6705 19.6434 23.6828 19.3155 23.3366C19.0116 23.0157 19.0161 22.5076 19.3304 22.1933L18.1689 21.0333C17.4169 21.7872 17.2777 22.9024 17.7075 23.8154L16.4297 25.0932L16.9943 25.6578L17.5897 26.2532L18.8669 24.9759C19.9309 25.4786 20.9831 25.1805 21.6504 24.5132C22.5332 23.6304 22.6909 22.133 21.6355 21.0166C21.3316 20.6951 21.3361 20.1877 21.6504 19.8734C21.964 19.5582 22.4741 19.5545 22.7942 19.858C23.1329 20.1792 23.1326 20.7103 22.8103 21.0334L23.9703 22.1933C24.7244 21.4393 24.8639 20.3234 24.4331 19.4097L25.7103 18.1326Z" fill="white"/>
<path d="M22.8053 21.0313L23.9652 22.1912C24.7193 21.4372 24.8588 20.3213 24.428 19.4077L25.7052 18.1305L25.1098 17.5352L22.7891 19.8559C23.1277 20.1771 23.1275 20.7082 22.8053 21.0313Z" fill="black" fill-opacity="0.05"/>
<path d="M18.8648 24.971C19.9288 25.4737 20.981 25.1756 21.6483 24.5083C22.5312 23.6255 22.6888 22.1281 21.6334 21.0117L20.473 22.1721C20.8322 22.5379 20.7887 23.048 20.4883 23.3484C20.1711 23.6656 19.6413 23.6779 19.3134 23.3317L16.9922 25.6529L17.5876 26.2483L18.8648 24.971Z" fill="black" fill-opacity="0.05"/>
</g>
<defs>
<filter id="filter0_d_4880_1988" x="0" y="0" width="49" height="49" filterUnits="userSpaceOnUse" color-interpolation-filters="sRGB">
<feFlood flood-opacity="0" result="BackgroundImageFix"/>
<feColorMatrix in="SourceAlpha" type="matrix" values="0 0 0 0 0 0 0 0 0 0 0 0 0 0 0 0 0 0 127 0" result="hardAlpha"/>
<feOffset dy="4"/>
<feGaussianBlur stdDeviation="2"/>
<feComposite in2="hardAlpha" operator="out"/>
<feColorMatrix type="matrix" values="0 0 0 0 0 0 0 0 0 0 0 0 0 0 0 0 0 0 0.25 0"/>
<feBlend mode="normal" in2="BackgroundImageFix" result="effect1_dropShadow_4880_1988"/>
<feBlend mode="normal" in="SourceGraphic" in2="effect1_dropShadow_4880_1988" result="shape"/>
</filter>
</defs>
</svg>
