<svg width="44" height="44" viewBox="0 0 44 44" fill="none" xmlns="http://www.w3.org/2000/svg">
<g filter="url(#filter0_d_4880_1978)">
<rect x="4" width="36" height="36" rx="8" fill="white"/>
<path d="M33.5492 22.5329C32.7645 24.6637 31.5777 26.5164 30.0213 28.039C28.2498 29.772 25.9302 31.1492 23.1267 32.1315C23.0347 32.1636 22.9387 32.19 22.8422 32.2094C22.7148 32.2346 22.5852 32.2482 22.4566 32.25H22.4315C22.2945 32.25 22.1568 32.2362 22.0203 32.2094C21.9238 32.19 21.8292 32.1636 21.7376 32.1322C18.9308 31.1514 16.6082 29.7749 14.8349 28.0419C13.2779 26.5193 12.0914 24.6677 11.3077 22.537C9.88283 18.6629 9.96391 14.3952 10.0292 10.9657L10.0303 10.913C10.0434 10.6298 10.0519 10.3323 10.0566 10.0039C10.0804 8.39108 11.3603 7.05681 12.9703 6.96687C16.3271 6.7792 18.9239 5.68237 21.1427 3.51571L21.162 3.49785C21.5305 3.15932 21.9947 2.99329 22.4566 3.00021C22.9021 3.00601 23.3458 3.17182 23.7011 3.49785L23.7201 3.51571C25.9393 5.68237 28.5361 6.7792 31.8929 6.96687C33.5029 7.05681 34.7828 8.39108 34.8066 10.0039C34.8113 10.3346 34.8197 10.6316 34.8329 10.913L34.8336 10.9353C34.8986 14.3713 34.9792 18.6475 33.5492 22.5329Z" fill="#008A21"/>
<path d="M33.5457 22.5327C32.7609 24.6635 31.5741 26.5161 30.0178 28.0388C28.2463 29.7718 25.9266 31.1489 23.1231 32.1313C23.0312 32.1634 22.9351 32.1898 22.8387 32.2092C22.7113 32.2344 22.5816 32.248 22.4531 32.2498V3C22.8986 3.0058 23.3423 3.17161 23.6976 3.49765L23.7165 3.5155C25.9358 5.68216 28.5325 6.77899 31.8893 6.96667C33.4993 7.0566 34.7792 8.39087 34.8031 10.0037C34.8078 10.3344 34.8162 10.6314 34.8294 10.9128L34.83 10.9351C34.8951 14.3711 34.9757 18.6473 33.5457 22.5327Z" fill="white" fill-opacity="0.2"/>
<path d="M29.7089 17.6257C29.7089 21.6365 26.4584 24.9014 22.4583 24.9156H22.4327C18.4208 24.9156 15.1562 21.6452 15.1562 17.6257C15.1562 13.6063 18.4208 10.3359 22.4327 10.3359H22.4583C26.4584 10.3502 29.7089 13.615 29.7089 17.6257Z" fill="white"/>
<path d="M29.7037 17.6257C29.7037 21.6365 26.4532 24.9014 22.4531 24.9156V10.3359C26.4532 10.3502 29.7037 13.615 29.7037 17.6257Z" fill="black" fill-opacity="0.05"/>
<path d="M25.7361 16.5745L22.4591 19.8581L21.751 20.5675C21.5837 20.7351 21.3643 20.8188 21.1451 20.8188C20.9257 20.8188 20.7065 20.7351 20.539 20.5675L19.0165 19.0415C18.682 18.7063 18.682 18.1634 19.0165 17.828C19.3507 17.4928 19.8933 17.4928 20.2278 17.828L21.1451 18.7469L24.5248 15.3609C24.8594 15.0255 25.402 15.0255 25.7361 15.3609C26.0707 15.6961 26.0707 16.2397 25.7361 16.5745Z" fill="#008A21"/>
<path d="M25.7302 16.5745L22.4531 19.8581V17.4303L24.5189 15.3609C24.8534 15.0255 25.3961 15.0255 25.7302 15.3609C26.0647 15.6961 26.0647 16.2397 25.7302 16.5745Z" fill="#6FA5AA"/>
</g>
<defs>
<filter id="filter0_d_4880_1978" x="0" y="0" width="44" height="44" filterUnits="userSpaceOnUse" color-interpolation-filters="sRGB">
<feFlood flood-opacity="0" result="BackgroundImageFix"/>
<feColorMatrix in="SourceAlpha" type="matrix" values="0 0 0 0 0 0 0 0 0 0 0 0 0 0 0 0 0 0 127 0" result="hardAlpha"/>
<feOffset dy="4"/>
<feGaussianBlur stdDeviation="2"/>
<feComposite in2="hardAlpha" operator="out"/>
<feColorMatrix type="matrix" values="0 0 0 0 0 0 0 0 0 0 0 0 0 0 0 0 0 0 0.25 0"/>
<feBlend mode="normal" in2="BackgroundImageFix" result="effect1_dropShadow_4880_1978"/>
<feBlend mode="normal" in="SourceGraphic" in2="effect1_dropShadow_4880_1978" result="shape"/>
</filter>
</defs>
</svg>
